<svg width="1500" height="920" viewBox="0 0 1500 920" fill="none" xmlns="http://www.w3.org/2000/svg"><defs><pattern id="grid" width="40" height="40" patternUnits="userSpaceOnUse"><path d="M 40 0 L 0 0 0 40" fill="none" stroke="#1e293b" stroke-width="0.8"/></pattern><marker id="arrow" markerWidth="12" markerHeight="8" refX="10" refY="4" orient="auto"><polygon points="0 0, 12 4, 0 8" fill="#94a3b8"/></marker><style>.title{font:700 34px 'JetBrains Mono',monospace;fill:#f8fafc}.subtitle{font:500 16px 'JetBrains Mono',monospace;fill:#94a3b8}.label{font:700 18px 'JetBrains Mono',monospace;fill:#f8fafc}.sub{font:500 13px 'JetBrains Mono',monospace;fill:#94a3b8}.tiny{font:500 12px 'JetBrains Mono',monospace;fill:#cbd5e1}.section{font:700 15px 'JetBrains Mono',monospace}.legend{font:600 12px 'JetBrains Mono',monospace;fill:#cbd5e1}</style></defs><rect width="1500" height="920" rx="28" fill="#020617"/><rect x="24" y="24" width="1452" height="872" rx="24" fill="url(#grid)"/>
<circle cx="88" cy="78" r="10" fill="#a78bfa"/><text x="114" y="88" class="title">memories：先后台生成，再前台消费</text><text x="88" y="120" class="subtitle">卷六第四篇先立住：memories 不是 turn-time helper，而是正式启动管线。</text>
<rect x="126" y="216" width="1248" height="290" rx="26" fill="rgba(168,85,247,0.08)" stroke="#a78bfa" stroke-width="1.8" stroke-dasharray="12 8"/><text x="160" y="252" class="section" fill="#a78bfa">memories pipeline</text>
<rect x="176" y="332" width="196" height="118" rx="18" fill="rgba(168,85,247,0.16)" stroke="#a78bfa" stroke-width="2.2"/><text x="274" y="372" text-anchor="middle" class="label">历史 threads</text><text x="274" y="400" text-anchor="middle" class="sub">候选线程集合</text>
<rect x="430" y="332" width="210" height="118" rx="18" fill="rgba(168,85,247,0.16)" stroke="#a78bfa" stroke-width="2.2"/><text x="535" y="372" text-anchor="middle" class="label">phase 1</text><text x="535" y="400" text-anchor="middle" class="sub">thread-level extraction</text>
<rect x="698" y="332" width="214" height="118" rx="18" fill="rgba(168,85,247,0.16)" stroke="#a78bfa" stroke-width="2.2"/><text x="805" y="372" text-anchor="middle" class="label">stage1 outputs</text><text x="805" y="400" text-anchor="middle" class="sub">jobs / baseline / 中间产物</text>
<rect x="970" y="332" width="214" height="118" rx="18" fill="rgba(168,85,247,0.16)" stroke="#a78bfa" stroke-width="2.2"/><text x="1077" y="372" text-anchor="middle" class="label">phase 2</text><text x="1077" y="400" text-anchor="middle" class="sub">global consolidation</text>
<rect x="1242" y="332" width="88" height="118" rx="18" fill="rgba(168,85,247,0.16)" stroke="#a78bfa" stroke-width="2.2"/><text x="1286" y="372" text-anchor="middle" class="label" style="font-size:15px">memory</text><text x="1286" y="398" text-anchor="middle" class="sub" style="font-size:12px">artifacts</text>
<line x1="372" y1="390" x2="430" y2="390" stroke="#a78bfa" stroke-width="2.2" marker-end="url(#arrow)"/><line x1="640" y1="390" x2="698" y2="390" stroke="#a78bfa" stroke-width="2.2" marker-end="url(#arrow)"/><line x1="912" y1="390" x2="970" y2="390" stroke="#a78bfa" stroke-width="2.2" marker-end="url(#arrow)"/><line x1="1184" y1="390" x2="1242" y2="390" stroke="#a78bfa" stroke-width="2.2" marker-end="url(#arrow)"/>
<rect x="510" y="586" width="480" height="126" rx="18" fill="rgba(56,189,248,0.12)" stroke="#38bdf8" stroke-width="2.2"/><text x="750" y="628" text-anchor="middle" class="label">startup / runtime read path</text><text x="750" y="658" text-anchor="middle" class="sub">注入当前 developer instructions</text><text x="750" y="684" text-anchor="middle" class="tiny">运行时消费的，只是前面整理好的产物</text>
<path d="M 1286 450 L 1286 538 Q 1286 586 1238 586 L 990 586" stroke="#38bdf8" stroke-width="2.2" fill="none" marker-end="url(#arrow)"/>
<rect x="176" y="780" width="1148" height="92" rx="18" fill="rgba(30,41,59,0.44)" stroke="#94a3b8" stroke-width="1.8"/><text x="750" y="816" text-anchor="middle" class="label">四个判断</text><text x="750" y="844" text-anchor="middle" class="sub">先后台生成，再前台消费；先 thread-level，再 global-level；所以 memories 更像 pipeline。</text></svg>